# xmcd
#
# Track frame offsets: 
#        150
#        20057
#        33209
#        51375
#        73596
#        90176
#        111278
#        132137
#        151245
#        171784
#        182099
#
# Disc length: 2478 seconds
#
# Revision: 0
# Processed by: cddbd v1.5.2PL0 Copyright (c) Steve Scherf et al.
# Submitted via: ExactAudioCopyFreeDBPlugin 1.0
#
DISCID=8909ac0b
DTITLE=Mojo Makers - Devils Hands 
DYEAR=2014
DGENRE=Blues
TTITLE0=Come On Brother
TTITLE1=Man Fire Soul
TTITLE2=Howl Away
TTITLE3=Fly On Baby
TTITLE4=Man Child
TTITLE5=Indian Woman
TTITLE6=One True Love
TTITLE7=Waiting For Your Love
TTITLE8=Naja
TTITLE9=Devils Hands
TTITLE10=Slight Return
EXTD=
EXTT0=
EXTT1=
EXTT2=
EXTT3=
EXTT4=
EXTT5=
EXTT6=
EXTT7=
EXTT8=
EXTT9=
EXTT10=
PLAYORDER=
